<?xml version="1.0" encoding="UTF-8"?>
<svg id="Layer_1" data-name="Layer 1" xmlns="http://www.w3.org/2000/svg" viewBox="0 0 544.22 544.22">
  <defs>
    <style>
      .cls-1 {
        fill: #ff7c4b;
      }
    </style>
  </defs>
  <path class="cls-1" d="m178.18,262.05c-6.59-.04-13.17-.03-19.76,0-5.77.03-10.27,4.47-10.25,10.06.02,5.59,4.5,9.98,10.29,10.03,3.29.03,6.59,0,9.88,0,3.29,0,6.59.03,9.88,0,5.72-.06,10.1-4.39,10.12-9.98.03-5.67-4.36-10.06-10.16-10.1Z"/>
  <path class="cls-1" d="m272.02,188.32c5.73.04,10.1-4.38,10.14-10.29.01-1.65.01-3.29.01-4.94,0-1.65,0-3.29,0-4.94,0-3.19.01-6.38,0-9.56-.03-5.91-4.38-10.43-10.03-10.44-5.64-.01-10.04,4.52-10.06,10.41-.02,6.48-.02,12.96,0,19.44.02,5.86,4.3,10.27,9.95,10.31Z"/>
  <path class="cls-1" d="m198.68,184.47c-1.94-1.92-4.3-2.92-8.01-2.9-3.32.12-6.52,2.04-8.23,5.95-1.75,4.01-1.11,7.86,1.95,11.03,4.69,4.85,9.48,9.62,14.31,14.32,4.09,3.97,10.19,3.93,14.12.05,3.99-3.93,4.08-10.09.05-14.23-4.67-4.8-9.44-9.5-14.2-14.22Z"/>
  <path class="cls-1" d="m272.11,0C2.1,0,0,121.83,0,272.11s2.1,272.11,272.11,272.11,272.11-121.83,272.11-272.11S542.12,0,272.11,0Zm107.61,391.46c-20.76,18.67-44.73,31.18-71.94,37.43-11.77,2.7-23.69,4.05-35.8,4.03-41.24-.59-77.36-14.37-108.09-42.03-3.71-3.34-3.25-8.52.99-11.16,22.36-13.91,46.49-23.15,72.45-27.64,22.21-3.84,44.45-4.01,66.69-.5,26.76,4.22,51.67,13.49,74.72,27.75,5.12,3.17,5.48,8.08.98,12.13Zm51.68-97.56c-3.52,25.25-12.5,48.35-26.94,69.35-2.72,3.95-6.26,4.69-10.27,2.09-23.59-15.29-49.15-25.84-76.66-31.58-19.4-4.05-39.01-5.57-58.81-4.28-39.11,2.53-75.14,14.4-108.13,35.53-.31.2-.62.4-.93.59-3.55,2.2-7.24,1.48-9.61-1.95-12.66-18.3-21.2-38.34-25.58-60.16-2.08-10.39-3.09-20.89-3.13-29.12.12-64.36,35.35-120.35,91.22-147.21,23.67-11.37,48.7-16.9,74.92-15.66,44.45,2.09,82.04,19.58,112.41,52.1,20.11,21.53,33.12,46.94,39.37,75.74,3.92,18.05,4.68,36.25,2.13,54.58Z"/>
  <path class="cls-1" d="m385.78,262.04c-3.24-.03-6.48,0-9.72,0-3.34,0-6.69-.03-10.03,0-5.73.06-10.1,4.38-10.14,9.96-.03,5.67,4.35,10.08,10.14,10.11,6.59.04,13.17.03,19.76,0,5.78-.03,10.27-4.46,10.27-10.04,0-5.59-4.49-9.99-10.27-10.04Z"/>
  <path class="cls-1" d="m362.49,188.71c.15-2.6-.96-4.7-3.23-6.03-2.5-1.46-4.98-1.21-7.4.32-24.61,15.56-49.3,31-73.8,46.73-9.49,6.1-18.89,12.44-27.73,19.43-9.45,7.49-12.84,17.95-10.7,29.75.52,2.89,1.4,5.6,2.58,8.1.39.83.82,1.64,1.28,2.43.23.39.47.78.71,1.16,5.66,8.74,15.48,14.12,26.78,14.21,5.21.09,10.07-1.09,14.66-3.35.66-.32,1.31-.67,1.95-1.03,5.07-2.88,8.58-7.27,11.84-11.92,21.96-31.37,41.85-64.07,62.07-96.57.58-.93.93-2.14.99-3.25Z"/>
</svg>